<svg xmlns="http://www.w3.org/2000/svg" viewBox="0 0 800 800" width="800" height="800">
<defs>
<pattern id="a" width="20" height="20" patternUnits="userSpaceOnUse"><path d="M 20 0 L 0 0 0 20" fill="none" stroke="#2b2b33" stroke-width="1"></path></pattern>
<pattern id="b" width="160" height="160" patternUnits="userSpaceOnUse"><path d="M 160 0 L 0 0 0 160" fill="none" stroke="#55555f" stroke-width="1.6"></path></pattern>
</defs>
<rect width="800" height="800" fill="#000"></rect>
<rect width="800" height="800" fill="url(#a)"></rect>
<rect width="800" height="800" fill="url(#b)"></rect>
<rect x="1" y="1" width="798" height="798" fill="none" stroke="#6a6a78" stroke-width="2"></rect>
<g opacity="0.3"><rect x="260" y="20" width="20" height="20" fill="#4A9EFF"></rect><rect x="440" y="40" width="20" height="20" fill="#FA71CD"></rect><rect x="420" y="60" width="60" height="20" fill="#FA71CD"></rect><rect x="440" y="80" width="20" height="20" fill="#FA71CD"></rect><rect x="320" y="120" width="40" height="20" fill="#C471F5"></rect><rect x="320" y="140" width="40" height="20" fill="#C471F5"></rect><rect x="280" y="180" width="240" height="20" fill="#F4ECE0"></rect><rect x="280" y="200" width="20" height="20" fill="#F4ECE0"></rect><rect x="500" y="200" width="20" height="20" fill="#F4ECE0"></rect><rect x="280" y="220" width="20" height="20" fill="#F4ECE0"></rect><rect x="320" y="220" width="20" height="20" fill="#FA71CD"></rect><rect x="340" y="220" width="120" height="20" fill="#F4ECE0"></rect><rect x="460" y="220" width="20" height="20" fill="#C471F5"></rect><rect x="500" y="220" width="20" height="20" fill="#F4ECE0"></rect><rect x="260" y="240" width="40" height="20" fill="#F4ECE0"></rect><rect x="320" y="240" width="20" height="20" fill="#C471F5"></rect><rect x="340" y="240" width="40" height="20" fill="#FA71CD"></rect><rect x="380" y="240" width="20" height="20" fill="#F4ECE0"></rect><rect x="400" y="240" width="60" height="20" fill="#FFD9F2"></rect><rect x="460" y="240" width="40" height="20" fill="#C471F5"></rect><rect x="500" y="240" width="40" height="20" fill="#F4ECE0"></rect><rect x="260" y="260" width="20" height="20" fill="#F4ECE0"></rect><rect x="280" y="260" width="40" height="20" fill="#FFD9F2"></rect><rect x="320" y="260" width="40" height="20" fill="#C471F5"></rect><rect x="360" y="260" width="40" height="20" fill="#FA71CD"></rect><rect x="400" y="260" width="20" height="20" fill="#F4ECE0"></rect><rect x="420" y="260" width="60" height="20" fill="#FFD9F2"></rect><rect x="480" y="260" width="40" height="20" fill="#C471F5"></rect><rect x="520" y="260" width="20" height="20" fill="#F4ECE0"></rect><rect x="240" y="280" width="40" height="20" fill="#F4ECE0"></rect><rect x="280" y="280" width="20" height="20" fill="#FFD9F2"></rect><rect x="300" y="280" width="80" height="20" fill="#C471F5"></rect><rect x="380" y="280" width="40" height="20" fill="#FA71CD"></rect><rect x="420" y="280" width="40" height="20" fill="#F4ECE0"></rect><rect x="460" y="280" width="20" height="20" fill="#FFD9F2"></rect><rect x="480" y="280" width="40" height="20" fill="#C471F5"></rect><rect x="520" y="280" width="40" height="20" fill="#F4ECE0"></rect><rect x="220" y="300" width="40" height="20" fill="#F4ECE0"></rect><rect x="260" y="300" width="40" height="20" fill="#FFD9F2"></rect><rect x="300" y="300" width="100" height="20" fill="#C471F5"></rect><rect x="400" y="300" width="40" height="20" fill="#FA71CD"></rect><rect x="440" y="300" width="20" height="20" fill="#F4ECE0"></rect><rect x="460" y="300" width="40" height="20" fill="#FFD9F2"></rect><rect x="500" y="300" width="40" height="20" fill="#C471F5"></rect><rect x="540" y="300" width="40" height="20" fill="#F4ECE0"></rect><rect x="220" y="320" width="20" height="20" fill="#F4ECE0"></rect><rect x="240" y="320" width="20" height="20" fill="#8000FF"></rect><rect x="260" y="320" width="20" height="20" fill="#FFD9F2"></rect><rect x="280" y="320" width="140" height="20" fill="#C471F5"></rect><rect x="420" y="320" width="40" height="20" fill="#FA71CD"></rect><rect x="460" y="320" width="20" height="20" fill="#F4ECE0"></rect><rect x="480" y="320" width="40" height="20" fill="#FFD9F2"></rect><rect x="520" y="320" width="40" height="20" fill="#C471F5"></rect><rect x="560" y="320" width="20" height="20" fill="#F4ECE0"></rect><rect x="200" y="340" width="40" height="20" fill="#F4ECE0"></rect><rect x="240" y="340" width="40" height="20" fill="#FFD9F2"></rect><rect x="280" y="340" width="140" height="20" fill="#C471F5"></rect><rect x="420" y="340" width="40" height="20" fill="#FA71CD"></rect><rect x="460" y="340" width="20" height="20" fill="#F4ECE0"></rect><rect x="480" y="340" width="40" height="20" fill="#FFD9F2"></rect><rect x="520" y="340" width="40" height="20" fill="#C471F5"></rect><rect x="560" y="340" width="40" height="20" fill="#F4ECE0"></rect><rect x="180" y="360" width="40" height="20" fill="#F4ECE0"></rect><rect x="220" y="360" width="20" height="20" fill="#8000FF"></rect><rect x="240" y="360" width="20" height="20" fill="#FFD9F2"></rect><rect x="260" y="360" width="160" height="20" fill="#C471F5"></rect><rect x="420" y="360" width="40" height="20" fill="#FA71CD"></rect><rect x="460" y="360" width="40" height="20" fill="#F4ECE0"></rect><rect x="500" y="360" width="20" height="20" fill="#FFD9F2"></rect><rect x="520" y="360" width="40" height="20" fill="#C471F5"></rect><rect x="560" y="360" width="20" height="20" fill="#8000FF"></rect><rect x="580" y="360" width="40" height="20" fill="#F4ECE0"></rect><rect x="180" y="380" width="20" height="20" fill="#F4ECE0"></rect><rect x="200" y="380" width="20" height="20" fill="#8000FF"></rect><rect x="220" y="380" width="40" height="20" fill="#FFD9F2"></rect><rect x="260" y="380" width="20" height="20" fill="#FA71CD"></rect><rect x="280" y="380" width="140" height="20" fill="#C471F5"></rect><rect x="420" y="380" width="40" height="20" fill="#FA71CD"></rect><rect x="460" y="380" width="40" height="20" fill="#F4ECE0"></rect><rect x="500" y="380" width="40" height="20" fill="#FFD9F2"></rect><rect x="540" y="380" width="20" height="20" fill="#C471F5"></rect><rect x="560" y="380" width="40" height="20" fill="#8000FF"></rect><rect x="600" y="380" width="20" height="20" fill="#F4ECE0"></rect><rect x="160" y="400" width="40" height="20" fill="#F4ECE0"></rect><rect x="200" y="400" width="20" height="20" fill="#8000FF"></rect><rect x="220" y="400" width="20" height="20" fill="#FFD9F2"></rect><rect x="240" y="400" width="40" height="20" fill="#FA71CD"></rect><rect x="280" y="400" width="140" height="20" fill="#C471F5"></rect><rect x="420" y="400" width="40" height="20" fill="#FA71CD"></rect><rect x="460" y="400" width="40" height="20" fill="#F4ECE0"></rect><rect x="500" y="400" width="40" height="20" fill="#FFD9F2"></rect><rect x="540" y="400" width="20" height="20" fill="#C471F5"></rect><rect x="560" y="400" width="40" height="20" fill="#8000FF"></rect><rect x="600" y="400" width="40" height="20" fill="#F4ECE0"></rect><rect x="160" y="420" width="20" height="20" fill="#F4ECE0"></rect><rect x="180" y="420" width="20" height="20" fill="#8000FF"></rect><rect x="200" y="420" width="40" height="20" fill="#FFD9F2"></rect><rect x="240" y="420" width="20" height="20" fill="#FA71CD"></rect><rect x="260" y="420" width="160" height="20" fill="#C471F5"></rect><rect x="420" y="420" width="40" height="20" fill="#FA71CD"></rect><rect x="460" y="420" width="40" height="20" fill="#F4ECE0"></rect><rect x="500" y="420" width="40" height="20" fill="#FFD9F2"></rect><rect x="540" y="420" width="20" height="20" fill="#C471F5"></rect><rect x="560" y="420" width="60" height="20" fill="#8000FF"></rect><rect x="620" y="420" width="20" height="20" fill="#F4ECE0"></rect><rect x="160" y="440" width="20" height="20" fill="#F4ECE0"></rect><rect x="180" y="440" width="20" height="20" fill="#8000FF"></rect><rect x="200" y="440" width="20" height="20" fill="#FFD9F2"></rect><rect x="220" y="440" width="40" height="20" fill="#FA71CD"></rect><rect x="260" y="440" width="120" height="20" fill="#C471F5"></rect><rect x="380" y="440" width="60" height="20" fill="#FA71CD"></rect><rect x="440" y="440" width="60" height="20" fill="#F4ECE0"></rect><rect x="500" y="440" width="20" height="20" fill="#FFD9F2"></rect><rect x="520" y="440" width="60" height="20" fill="#C471F5"></rect><rect x="580" y="440" width="40" height="20" fill="#8000FF"></rect><rect x="620" y="440" width="20" height="20" fill="#F4ECE0"></rect><rect x="160" y="460" width="20" height="20" fill="#F4ECE0"></rect><rect x="180" y="460" width="20" height="20" fill="#8000FF"></rect><rect x="200" y="460" width="20" height="20" fill="#FFD9F2"></rect><rect x="220" y="460" width="20" height="20" fill="#FA71CD"></rect><rect x="240" y="460" width="120" height="20" fill="#C471F5"></rect><rect x="360" y="460" width="40" height="20" fill="#FA71CD"></rect><rect x="400" y="460" width="60" height="20" fill="#F4ECE0"></rect><rect x="460" y="460" width="60" height="20" fill="#FFD9F2"></rect><rect x="520" y="460" width="40" height="20" fill="#C471F5"></rect><rect x="560" y="460" width="60" height="20" fill="#8000FF"></rect><rect x="620" y="460" width="20" height="20" fill="#F4ECE0"></rect><rect x="160" y="480" width="20" height="20" fill="#F4ECE0"></rect><rect x="180" y="480" width="20" height="20" fill="#8000FF"></rect><rect x="200" y="480" width="20" height="20" fill="#FFD9F2"></rect><rect x="220" y="480" width="20" height="20" fill="#FA71CD"></rect><rect x="240" y="480" width="80" height="20" fill="#C471F5"></rect><rect x="320" y="480" width="40" height="20" fill="#FA71CD"></rect><rect x="360" y="480" width="40" height="20" fill="#F4ECE0"></rect><rect x="400" y="480" width="80" height="20" fill="#FFD9F2"></rect><rect x="480" y="480" width="80" height="20" fill="#C471F5"></rect><rect x="560" y="480" width="60" height="20" fill="#8000FF"></rect><rect x="620" y="480" width="20" height="20" fill="#F4ECE0"></rect><rect x="160" y="500" width="20" height="20" fill="#F4ECE0"></rect><rect x="180" y="500" width="20" height="20" fill="#8000FF"></rect><rect x="200" y="500" width="20" height="20" fill="#FFD9F2"></rect><rect x="220" y="500" width="20" height="20" fill="#FA71CD"></rect><rect x="240" y="500" width="60" height="20" fill="#C471F5"></rect><rect x="300" y="500" width="140" height="20" fill="#FFD9F2"></rect><rect x="440" y="500" width="100" height="20" fill="#C471F5"></rect><rect x="540" y="500" width="80" height="20" fill="#8000FF"></rect><rect x="620" y="500" width="20" height="20" fill="#F4ECE0"></rect><rect x="160" y="520" width="40" height="20" fill="#F4ECE0"></rect><rect x="200" y="520" width="60" height="20" fill="#8000FF"></rect><rect x="260" y="520" width="260" height="20" fill="#C471F5"></rect><rect x="520" y="520" width="80" height="20" fill="#8000FF"></rect><rect x="600" y="520" width="40" height="20" fill="#F4ECE0"></rect><rect x="180" y="540" width="20" height="20" fill="#F4ECE0"></rect><rect x="200" y="540" width="80" height="20" fill="#8000FF"></rect><rect x="280" y="540" width="200" height="20" fill="#C471F5"></rect><rect x="480" y="540" width="120" height="20" fill="#8000FF"></rect><rect x="600" y="540" width="20" height="20" fill="#F4ECE0"></rect><rect x="180" y="560" width="40" height="20" fill="#F4ECE0"></rect><rect x="220" y="560" width="20" height="20" fill="#4A9EFF"></rect><rect x="240" y="560" width="80" height="20" fill="#8000FF"></rect><rect x="320" y="560" width="120" height="20" fill="#C471F5"></rect><rect x="440" y="560" width="120" height="20" fill="#8000FF"></rect><rect x="560" y="560" width="20" height="20" fill="#4A9EFF"></rect><rect x="580" y="560" width="40" height="20" fill="#F4ECE0"></rect><rect x="200" y="580" width="20" height="20" fill="#F4ECE0"></rect><rect x="220" y="580" width="40" height="20" fill="#4A9EFF"></rect><rect x="260" y="580" width="280" height="20" fill="#8000FF"></rect><rect x="540" y="580" width="40" height="20" fill="#4A9EFF"></rect><rect x="580" y="580" width="20" height="20" fill="#F4ECE0"></rect><rect x="200" y="600" width="40" height="20" fill="#F4ECE0"></rect><rect x="240" y="600" width="60" height="20" fill="#4A9EFF"></rect><rect x="300" y="600" width="200" height="20" fill="#8000FF"></rect><rect x="500" y="600" width="60" height="20" fill="#4A9EFF"></rect><rect x="560" y="600" width="40" height="20" fill="#F4ECE0"></rect><rect x="220" y="620" width="40" height="20" fill="#F4ECE0"></rect><rect x="260" y="620" width="80" height="20" fill="#4A9EFF"></rect><rect x="340" y="620" width="120" height="20" fill="#8000FF"></rect><rect x="460" y="620" width="80" height="20" fill="#4A9EFF"></rect><rect x="540" y="620" width="40" height="20" fill="#F4ECE0"></rect><rect x="240" y="640" width="40" height="20" fill="#F4ECE0"></rect><rect x="280" y="640" width="100" height="20" fill="#4A9EFF"></rect><rect x="380" y="640" width="40" height="20" fill="#8000FF"></rect><rect x="420" y="640" width="100" height="20" fill="#4A9EFF"></rect><rect x="520" y="640" width="40" height="20" fill="#F4ECE0"></rect><rect x="260" y="660" width="60" height="20" fill="#F4ECE0"></rect><rect x="320" y="660" width="160" height="20" fill="#4A9EFF"></rect><rect x="480" y="660" width="60" height="20" fill="#F4ECE0"></rect><rect x="300" y="680" width="40" height="20" fill="#F4ECE0"></rect><rect x="340" y="680" width="120" height="20" fill="#4A9EFF"></rect><rect x="460" y="680" width="40" height="20" fill="#F4ECE0"></rect><rect x="320" y="700" width="160" height="20" fill="#F4ECE0"></rect></g>
<rect x="280" y="20" width="20" height="20" fill="#4A9EFF"></rect><rect x="460" y="60" width="20" height="20" fill="#FA71CD"></rect><rect x="440" y="80" width="60" height="20" fill="#FA71CD"></rect><rect x="460" y="100" width="20" height="20" fill="#FA71CD"></rect><rect x="320" y="140" width="40" height="20" fill="#C471F5"></rect><rect x="320" y="160" width="40" height="20" fill="#C471F5"></rect><rect x="280" y="180" width="240" height="20" fill="#F4ECE0"></rect><rect x="280" y="200" width="20" height="20" fill="#F4ECE0"></rect><rect x="500" y="200" width="20" height="20" fill="#F4ECE0"></rect><rect x="280" y="220" width="20" height="20" fill="#F4ECE0"></rect><rect x="320" y="220" width="20" height="20" fill="#FA71CD"></rect><rect x="340" y="220" width="120" height="20" fill="#F4ECE0"></rect><rect x="460" y="220" width="20" height="20" fill="#C471F5"></rect><rect x="500" y="220" width="20" height="20" fill="#F4ECE0"></rect><rect x="260" y="240" width="40" height="20" fill="#F4ECE0"></rect><rect x="320" y="240" width="20" height="20" fill="#C471F5"></rect><rect x="340" y="240" width="40" height="20" fill="#FA71CD"></rect><rect x="380" y="240" width="60" height="20" fill="#F4ECE0"></rect><rect x="440" y="240" width="40" height="20" fill="#FFD9F2"></rect><rect x="480" y="240" width="20" height="20" fill="#C471F5"></rect><rect x="500" y="240" width="40" height="20" fill="#F4ECE0"></rect><rect x="260" y="260" width="20" height="20" fill="#F4ECE0"></rect><rect x="280" y="260" width="40" height="20" fill="#FFD9F2"></rect><rect x="320" y="260" width="40" height="20" fill="#C471F5"></rect><rect x="360" y="260" width="40" height="20" fill="#FA71CD"></rect><rect x="400" y="260" width="60" height="20" fill="#F4ECE0"></rect><rect x="460" y="260" width="40" height="20" fill="#FFD9F2"></rect><rect x="500" y="260" width="20" height="20" fill="#C471F5"></rect><rect x="520" y="260" width="20" height="20" fill="#F4ECE0"></rect><rect x="240" y="280" width="40" height="20" fill="#F4ECE0"></rect><rect x="280" y="280" width="20" height="20" fill="#FFD9F2"></rect><rect x="300" y="280" width="80" height="20" fill="#C471F5"></rect><rect x="380" y="280" width="40" height="20" fill="#FA71CD"></rect><rect x="420" y="280" width="60" height="20" fill="#F4ECE0"></rect><rect x="480" y="280" width="20" height="20" fill="#FFD9F2"></rect><rect x="500" y="280" width="20" height="20" fill="#C471F5"></rect><rect x="520" y="280" width="40" height="20" fill="#F4ECE0"></rect><rect x="220" y="300" width="40" height="20" fill="#F4ECE0"></rect><rect x="260" y="300" width="40" height="20" fill="#FFD9F2"></rect><rect x="300" y="300" width="100" height="20" fill="#C471F5"></rect><rect x="400" y="300" width="40" height="20" fill="#FA71CD"></rect><rect x="440" y="300" width="60" height="20" fill="#F4ECE0"></rect><rect x="500" y="300" width="20" height="20" fill="#FFD9F2"></rect><rect x="520" y="300" width="20" height="20" fill="#C471F5"></rect><rect x="540" y="300" width="40" height="20" fill="#F4ECE0"></rect><rect x="220" y="320" width="20" height="20" fill="#F4ECE0"></rect><rect x="240" y="320" width="20" height="20" fill="#8000FF"></rect><rect x="260" y="320" width="20" height="20" fill="#FFD9F2"></rect><rect x="280" y="320" width="160" height="20" fill="#C471F5"></rect><rect x="440" y="320" width="20" height="20" fill="#FA71CD"></rect><rect x="460" y="320" width="40" height="20" fill="#F4ECE0"></rect><rect x="500" y="320" width="40" height="20" fill="#FFD9F2"></rect><rect x="540" y="320" width="20" height="20" fill="#C471F5"></rect><rect x="560" y="320" width="20" height="20" fill="#F4ECE0"></rect><rect x="200" y="340" width="40" height="20" fill="#F4ECE0"></rect><rect x="240" y="340" width="40" height="20" fill="#FFD9F2"></rect><rect x="280" y="340" width="160" height="20" fill="#C471F5"></rect><rect x="440" y="340" width="20" height="20" fill="#FA71CD"></rect><rect x="460" y="340" width="40" height="20" fill="#F4ECE0"></rect><rect x="500" y="340" width="40" height="20" fill="#FFD9F2"></rect><rect x="540" y="340" width="20" height="20" fill="#C471F5"></rect><rect x="560" y="340" width="40" height="20" fill="#F4ECE0"></rect><rect x="180" y="360" width="40" height="20" fill="#F4ECE0"></rect><rect x="220" y="360" width="20" height="20" fill="#8000FF"></rect><rect x="240" y="360" width="20" height="20" fill="#FFD9F2"></rect><rect x="260" y="360" width="180" height="20" fill="#C471F5"></rect><rect x="440" y="360" width="20" height="20" fill="#FA71CD"></rect><rect x="460" y="360" width="60" height="20" fill="#F4ECE0"></rect><rect x="520" y="360" width="20" height="20" fill="#FFD9F2"></rect><rect x="540" y="360" width="20" height="20" fill="#C471F5"></rect><rect x="560" y="360" width="20" height="20" fill="#8000FF"></rect><rect x="580" y="360" width="40" height="20" fill="#F4ECE0"></rect><rect x="180" y="380" width="20" height="20" fill="#F4ECE0"></rect><rect x="200" y="380" width="20" height="20" fill="#8000FF"></rect><rect x="220" y="380" width="40" height="20" fill="#FFD9F2"></rect><rect x="260" y="380" width="20" height="20" fill="#FA71CD"></rect><rect x="280" y="380" width="160" height="20" fill="#C471F5"></rect><rect x="440" y="380" width="20" height="20" fill="#FA71CD"></rect><rect x="460" y="380" width="60" height="20" fill="#F4ECE0"></rect><rect x="520" y="380" width="20" height="20" fill="#FFD9F2"></rect><rect x="540" y="380" width="20" height="20" fill="#C471F5"></rect><rect x="560" y="380" width="40" height="20" fill="#8000FF"></rect><rect x="600" y="380" width="20" height="20" fill="#F4ECE0"></rect><rect x="160" y="400" width="40" height="20" fill="#F4ECE0"></rect><rect x="200" y="400" width="20" height="20" fill="#8000FF"></rect><rect x="220" y="400" width="20" height="20" fill="#FFD9F2"></rect><rect x="240" y="400" width="40" height="20" fill="#FA71CD"></rect><rect x="280" y="400" width="40" height="20" fill="#C471F5"></rect><rect x="320" y="400" width="20" height="20" fill="#FA71CD"></rect><rect x="340" y="400" width="100" height="20" fill="#C471F5"></rect><rect x="440" y="400" width="20" height="20" fill="#FA71CD"></rect><rect x="460" y="400" width="60" height="20" fill="#F4ECE0"></rect><rect x="520" y="400" width="20" height="20" fill="#FFD9F2"></rect><rect x="540" y="400" width="20" height="20" fill="#C471F5"></rect><rect x="560" y="400" width="40" height="20" fill="#8000FF"></rect><rect x="600" y="400" width="40" height="20" fill="#F4ECE0"></rect><rect x="160" y="420" width="20" height="20" fill="#F4ECE0"></rect><rect x="180" y="420" width="20" height="20" fill="#8000FF"></rect><rect x="200" y="420" width="40" height="20" fill="#FFD9F2"></rect><rect x="240" y="420" width="20" height="20" fill="#FA71CD"></rect><rect x="260" y="420" width="40" height="20" fill="#C471F5"></rect><rect x="300" y="420" width="20" height="20" fill="#F4ECE0"></rect><rect x="320" y="420" width="40" height="20" fill="#FA71CD"></rect><rect x="360" y="420" width="60" height="20" fill="#C471F5"></rect><rect x="420" y="420" width="40" height="20" fill="#FA71CD"></rect><rect x="460" y="420" width="40" height="20" fill="#F4ECE0"></rect><rect x="500" y="420" width="40" height="20" fill="#FFD9F2"></rect><rect x="540" y="420" width="20" height="20" fill="#C471F5"></rect><rect x="560" y="420" width="60" height="20" fill="#8000FF"></rect><rect x="620" y="420" width="20" height="20" fill="#F4ECE0"></rect><rect x="160" y="440" width="20" height="20" fill="#F4ECE0"></rect><rect x="180" y="440" width="20" height="20" fill="#8000FF"></rect><rect x="200" y="440" width="20" height="20" fill="#FFD9F2"></rect><rect x="220" y="440" width="40" height="20" fill="#FA71CD"></rect><rect x="260" y="440" width="40" height="20" fill="#C471F5"></rect><rect x="300" y="440" width="40" height="20" fill="#F4ECE0"></rect><rect x="340" y="440" width="100" height="20" fill="#FA71CD"></rect><rect x="440" y="440" width="60" height="20" fill="#F4ECE0"></rect><rect x="500" y="440" width="40" height="20" fill="#FFD9F2"></rect><rect x="540" y="440" width="40" height="20" fill="#C471F5"></rect><rect x="580" y="440" width="40" height="20" fill="#8000FF"></rect><rect x="620" y="440" width="20" height="20" fill="#F4ECE0"></rect><rect x="160" y="460" width="20" height="20" fill="#F4ECE0"></rect><rect x="180" y="460" width="20" height="20" fill="#8000FF"></rect><rect x="200" y="460" width="20" height="20" fill="#FFD9F2"></rect><rect x="220" y="460" width="20" height="20" fill="#FA71CD"></rect><rect x="240" y="460" width="60" height="20" fill="#C471F5"></rect><rect x="300" y="460" width="40" height="20" fill="#FFD9F2"></rect><rect x="340" y="460" width="20" height="20" fill="#F4ECE0"></rect><rect x="360" y="460" width="40" height="20" fill="#FA71CD"></rect><rect x="400" y="460" width="60" height="20" fill="#F4ECE0"></rect><rect x="460" y="460" width="60" height="20" fill="#FFD9F2"></rect><rect x="520" y="460" width="40" height="20" fill="#C471F5"></rect><rect x="560" y="460" width="60" height="20" fill="#8000FF"></rect><rect x="620" y="460" width="20" height="20" fill="#F4ECE0"></rect><rect x="160" y="480" width="20" height="20" fill="#F4ECE0"></rect><rect x="180" y="480" width="20" height="20" fill="#8000FF"></rect><rect x="200" y="480" width="20" height="20" fill="#FFD9F2"></rect><rect x="220" y="480" width="20" height="20" fill="#FA71CD"></rect><rect x="240" y="480" width="80" height="20" fill="#C471F5"></rect><rect x="320" y="480" width="20" height="20" fill="#FFD9F2"></rect><rect x="340" y="480" width="60" height="20" fill="#F4ECE0"></rect><rect x="400" y="480" width="100" height="20" fill="#FFD9F2"></rect><rect x="500" y="480" width="60" height="20" fill="#C471F5"></rect><rect x="560" y="480" width="60" height="20" fill="#8000FF"></rect><rect x="620" y="480" width="20" height="20" fill="#F4ECE0"></rect><rect x="160" y="500" width="20" height="20" fill="#F4ECE0"></rect><rect x="180" y="500" width="20" height="20" fill="#8000FF"></rect><rect x="200" y="500" width="20" height="20" fill="#FFD9F2"></rect><rect x="220" y="500" width="20" height="20" fill="#FA71CD"></rect><rect x="240" y="500" width="100" height="20" fill="#C471F5"></rect><rect x="340" y="500" width="100" height="20" fill="#FFD9F2"></rect><rect x="440" y="500" width="100" height="20" fill="#C471F5"></rect><rect x="540" y="500" width="80" height="20" fill="#8000FF"></rect><rect x="620" y="500" width="20" height="20" fill="#F4ECE0"></rect><rect x="160" y="520" width="40" height="20" fill="#F4ECE0"></rect><rect x="200" y="520" width="60" height="20" fill="#8000FF"></rect><rect x="260" y="520" width="260" height="20" fill="#C471F5"></rect><rect x="520" y="520" width="80" height="20" fill="#8000FF"></rect><rect x="600" y="520" width="40" height="20" fill="#F4ECE0"></rect><rect x="180" y="540" width="20" height="20" fill="#F4ECE0"></rect><rect x="200" y="540" width="80" height="20" fill="#8000FF"></rect><rect x="280" y="540" width="200" height="20" fill="#C471F5"></rect><rect x="480" y="540" width="120" height="20" fill="#8000FF"></rect><rect x="600" y="540" width="20" height="20" fill="#F4ECE0"></rect><rect x="180" y="560" width="40" height="20" fill="#F4ECE0"></rect><rect x="220" y="560" width="20" height="20" fill="#4A9EFF"></rect><rect x="240" y="560" width="80" height="20" fill="#8000FF"></rect><rect x="320" y="560" width="120" height="20" fill="#C471F5"></rect><rect x="440" y="560" width="120" height="20" fill="#8000FF"></rect><rect x="560" y="560" width="20" height="20" fill="#4A9EFF"></rect><rect x="580" y="560" width="40" height="20" fill="#F4ECE0"></rect><rect x="200" y="580" width="20" height="20" fill="#F4ECE0"></rect><rect x="220" y="580" width="40" height="20" fill="#4A9EFF"></rect><rect x="260" y="580" width="280" height="20" fill="#8000FF"></rect><rect x="540" y="580" width="40" height="20" fill="#4A9EFF"></rect><rect x="580" y="580" width="20" height="20" fill="#F4ECE0"></rect><rect x="200" y="600" width="40" height="20" fill="#F4ECE0"></rect><rect x="240" y="600" width="60" height="20" fill="#4A9EFF"></rect><rect x="300" y="600" width="200" height="20" fill="#8000FF"></rect><rect x="500" y="600" width="60" height="20" fill="#4A9EFF"></rect><rect x="560" y="600" width="40" height="20" fill="#F4ECE0"></rect><rect x="220" y="620" width="40" height="20" fill="#F4ECE0"></rect><rect x="260" y="620" width="80" height="20" fill="#4A9EFF"></rect><rect x="340" y="620" width="120" height="20" fill="#8000FF"></rect><rect x="460" y="620" width="80" height="20" fill="#4A9EFF"></rect><rect x="540" y="620" width="40" height="20" fill="#F4ECE0"></rect><rect x="240" y="640" width="40" height="20" fill="#F4ECE0"></rect><rect x="280" y="640" width="100" height="20" fill="#4A9EFF"></rect><rect x="380" y="640" width="40" height="20" fill="#8000FF"></rect><rect x="420" y="640" width="100" height="20" fill="#4A9EFF"></rect><rect x="520" y="640" width="40" height="20" fill="#F4ECE0"></rect><rect x="260" y="660" width="60" height="20" fill="#F4ECE0"></rect><rect x="320" y="660" width="160" height="20" fill="#4A9EFF"></rect><rect x="480" y="660" width="60" height="20" fill="#F4ECE0"></rect><rect x="300" y="680" width="40" height="20" fill="#F4ECE0"></rect><rect x="340" y="680" width="120" height="20" fill="#4A9EFF"></rect><rect x="460" y="680" width="40" height="20" fill="#F4ECE0"></rect><rect x="320" y="700" width="160" height="20" fill="#F4ECE0"></rect>
</svg>